<?xml version="1.0" encoding="UTF-8" standalone="no"?>
<!DOCTYPE svg PUBLIC "-//W3C//DTD SVG 1.1//EN"
 "http://www.w3.org/Graphics/SVG/1.1/DTD/svg11.dtd">
<!-- Generated by graphviz version 2.50.0 (20211204.2007)
 -->
<!-- Title: Tree Pages: 1 -->
<svg width="1571pt" height="789pt"
 viewBox="0.00 0.00 1571.00 789.00" xmlns="http://www.w3.org/2000/svg" xmlns:xlink="http://www.w3.org/1999/xlink">
<g id="graph0" class="graph" transform="scale(1 1) rotate(0) translate(4 785)">
<title>Tree</title>
<polygon fill="white" stroke="transparent" points="-4,4 -4,-785 1567,-785 1567,4 -4,4"/>
<!-- 0 -->
<g id="node1" class="node">
<title>0</title>
<polygon fill="#afd7f4" stroke="black" points="1131.5,-781 976.5,-781 976.5,-713 1131.5,-713 1131.5,-781"/>
<text text-anchor="middle" x="1054" y="-765.8" font-family="Helvetica,sans-Serif" font-size="14.00">worst radius &lt;= 16.795</text>
<text text-anchor="middle" x="1054" y="-750.8" font-family="Helvetica,sans-Serif" font-size="14.00">samples = 426</text>
<text text-anchor="middle" x="1054" y="-735.8" font-family="Helvetica,sans-Serif" font-size="14.00">value = [159, 267]</text>
<text text-anchor="middle" x="1054" y="-720.8" font-family="Helvetica,sans-Serif" font-size="14.00">class = benign</text>
</g>
<!-- 1 -->
<g id="node2" class="node">
<title>1</title>
<polygon fill="#4ca6e8" stroke="black" points="982,-677 782,-677 782,-609 982,-609 982,-677"/>
<text text-anchor="middle" x="882" y="-661.8" font-family="Helvetica,sans-Serif" font-size="14.00">worst concave points &lt;= 0.136</text>
<text text-anchor="middle" x="882" y="-646.8" font-family="Helvetica,sans-Serif" font-size="14.00">samples = 284</text>
<text text-anchor="middle" x="882" y="-631.8" font-family="Helvetica,sans-Serif" font-size="14.00">value = [25, 259]</text>
<text text-anchor="middle" x="882" y="-616.8" font-family="Helvetica,sans-Serif" font-size="14.00">class = benign</text>
</g>
<!-- 0&#45;&gt;1 -->
<g id="edge1" class="edge">
<title>0&#45;&gt;1</title>
<path fill="none" stroke="black" d="M998.16,-712.88C981.7,-703.12 963.56,-692.37 946.6,-682.31"/>
<polygon fill="black" stroke="black" points="948.24,-679.22 937.86,-677.12 944.67,-685.24 948.24,-679.22"/>
<text text-anchor="middle" x="944.05" y="-697.65" font-family="Helvetica,sans-Serif" font-size="14.00">True</text>
</g>
<!-- 28 -->
<g id="node29" class="node">
<title>28</title>
<polygon fill="#e78945" stroke="black" points="1187,-677 1039,-677 1039,-609 1187,-609 1187,-677"/>
<text text-anchor="middle" x="1113" y="-661.8" font-family="Helvetica,sans-Serif" font-size="14.00">texture error &lt;= 0.473</text>
<text text-anchor="middle" x="1113" y="-646.8" font-family="Helvetica,sans-Serif" font-size="14.00">samples = 142</text>
<text text-anchor="middle" x="1113" y="-631.8" font-family="Helvetica,sans-Serif" font-size="14.00">value = [134, 8]</text>
<text text-anchor="middle" x="1113" y="-616.8" font-family="Helvetica,sans-Serif" font-size="14.00">class = malignant</text>
</g>
<!-- 0&#45;&gt;28 -->
<g id="edge28" class="edge">
<title>0&#45;&gt;28</title>
<path fill="none" stroke="black" d="M1073.16,-712.88C1078.1,-704.33 1083.49,-695.01 1088.66,-686.07"/>
<polygon fill="black" stroke="black" points="1091.76,-687.71 1093.74,-677.3 1085.7,-684.2 1091.76,-687.71"/>
<text text-anchor="middle" x="1100.19" y="-697.75" font-family="Helvetica,sans-Serif" font-size="14.00">False</text>
</g>
<!-- 2 -->
<g id="node3" class="node">
<title>2</title>
<polygon fill="#3c9fe5" stroke="black" points="702.5,-573 559.5,-573 559.5,-505 702.5,-505 702.5,-573"/>
<text text-anchor="middle" x="631" y="-557.8" font-family="Helvetica,sans-Serif" font-size="14.00">radius error &lt;= 1.048</text>
<text text-anchor="middle" x="631" y="-542.8" font-family="Helvetica,sans-Serif" font-size="14.00">samples = 252</text>
<text text-anchor="middle" x="631" y="-527.8" font-family="Helvetica,sans-Serif" font-size="14.00">value = [4, 248]</text>
<text text-anchor="middle" x="631" y="-512.8" font-family="Helvetica,sans-Serif" font-size="14.00">class = benign</text>
</g>
<!-- 1&#45;&gt;2 -->
<g id="edge2" class="edge">
<title>1&#45;&gt;2</title>
<path fill="none" stroke="black" d="M800.51,-608.88C772.21,-597.39 740.5,-584.5 712.23,-573.01"/>
<polygon fill="black" stroke="black" points="713.37,-569.69 702.78,-569.17 710.73,-576.18 713.37,-569.69"/>
</g>
<!-- 17 -->
<g id="node18" class="node">
<title>17</title>
<polygon fill="#f3c3a1" stroke="black" points="958,-573 806,-573 806,-505 958,-505 958,-573"/>
<text text-anchor="middle" x="882" y="-557.8" font-family="Helvetica,sans-Serif" font-size="14.00">worst texture &lt;= 25.62</text>
<text text-anchor="middle" x="882" y="-542.8" font-family="Helvetica,sans-Serif" font-size="14.00">samples = 32</text>
<text text-anchor="middle" x="882" y="-527.8" font-family="Helvetica,sans-Serif" font-size="14.00">value = [21, 11]</text>
<text text-anchor="middle" x="882" y="-512.8" font-family="Helvetica,sans-Serif" font-size="14.00">class = malignant</text>
</g>
<!-- 1&#45;&gt;17 -->
<g id="edge17" class="edge">
<title>1&#45;&gt;17</title>
<path fill="none" stroke="black" d="M882,-608.88C882,-600.78 882,-591.98 882,-583.47"/>
<polygon fill="black" stroke="black" points="885.5,-583.3 882,-573.3 878.5,-583.3 885.5,-583.3"/>
</g>
<!-- 3 -->
<g id="node4" class="node">
<title>3</title>
<polygon fill="#3b9ee5" stroke="black" points="471,-469 291,-469 291,-401 471,-401 471,-469"/>
<text text-anchor="middle" x="381" y="-453.8" font-family="Helvetica,sans-Serif" font-size="14.00">smoothness error &lt;= 0.003</text>
<text text-anchor="middle" x="381" y="-438.8" font-family="Helvetica,sans-Serif" font-size="14.00">samples = 251</text>
<text text-anchor="middle" x="381" y="-423.8" font-family="Helvetica,sans-Serif" font-size="14.00">value = [3, 248]</text>
<text text-anchor="middle" x="381" y="-408.8" font-family="Helvetica,sans-Serif" font-size="14.00">class = benign</text>
</g>
<!-- 2&#45;&gt;3 -->
<g id="edge3" class="edge">
<title>2&#45;&gt;3</title>
<path fill="none" stroke="black" d="M559.36,-508.77C531.89,-497.56 500.18,-484.63 471.19,-472.8"/>
<polygon fill="black" stroke="black" points="472.47,-469.54 461.89,-469 469.82,-476.02 472.47,-469.54"/>
</g>
<!-- 16 -->
<g id="node17" class="node">
<title>16</title>
<polygon fill="#e58139" stroke="black" points="692,-461.5 570,-461.5 570,-408.5 692,-408.5 692,-461.5"/>
<text text-anchor="middle" x="631" y="-446.3" font-family="Helvetica,sans-Serif" font-size="14.00">samples = 1</text>
<text text-anchor="middle" x="631" y="-431.3" font-family="Helvetica,sans-Serif" font-size="14.00">value = [1, 0]</text>
<text text-anchor="middle" x="631" y="-416.3" font-family="Helvetica,sans-Serif" font-size="14.00">class = malignant</text>
</g>
<!-- 2&#45;&gt;16 -->
<g id="edge16" class="edge">
<title>2&#45;&gt;16</title>
<path fill="none" stroke="black" d="M631,-504.88C631,-494.33 631,-482.6 631,-471.85"/>
<polygon fill="black" stroke="black" points="634.5,-471.52 631,-461.52 627.5,-471.52 634.5,-471.52"/>
</g>
<!-- 4 -->
<g id="node5" class="node">
<title>4</title>
<polygon fill="#7bbeee" stroke="black" points="256,-365 110,-365 110,-297 256,-297 256,-365"/>
<text text-anchor="middle" x="183" y="-349.8" font-family="Helvetica,sans-Serif" font-size="14.00">mean texture &lt;= 19.9</text>
<text text-anchor="middle" x="183" y="-334.8" font-family="Helvetica,sans-Serif" font-size="14.00">samples = 4</text>
<text text-anchor="middle" x="183" y="-319.8" font-family="Helvetica,sans-Serif" font-size="14.00">value = [1, 3]</text>
<text text-anchor="middle" x="183" y="-304.8" font-family="Helvetica,sans-Serif" font-size="14.00">class = benign</text>
</g>
<!-- 3&#45;&gt;4 -->
<g id="edge4" class="edge">
<title>3&#45;&gt;4</title>
<path fill="none" stroke="black" d="M316.72,-400.88C297.42,-390.95 276.12,-379.97 256.29,-369.76"/>
<polygon fill="black" stroke="black" points="257.79,-366.59 247.3,-365.12 254.59,-372.82 257.79,-366.59"/>
</g>
<!-- 7 -->
<g id="node8" class="node">
<title>7</title>
<polygon fill="#3b9ee5" stroke="black" points="444,-365 318,-365 318,-297 444,-297 444,-365"/>
<text text-anchor="middle" x="381" y="-349.8" font-family="Helvetica,sans-Serif" font-size="14.00">area error &lt;= 48.7</text>
<text text-anchor="middle" x="381" y="-334.8" font-family="Helvetica,sans-Serif" font-size="14.00">samples = 247</text>
<text text-anchor="middle" x="381" y="-319.8" font-family="Helvetica,sans-Serif" font-size="14.00">value = [2, 245]</text>
<text text-anchor="middle" x="381" y="-304.8" font-family="Helvetica,sans-Serif" font-size="14.00">class = benign</text>
</g>
<!-- 3&#45;&gt;7 -->
<g id="edge7" class="edge">
<title>3&#45;&gt;7</title>
<path fill="none" stroke="black" d="M381,-400.88C381,-392.78 381,-383.98 381,-375.47"/>
<polygon fill="black" stroke="black" points="384.5,-375.3 381,-365.3 377.5,-375.3 384.5,-375.3"/>
</g>
<!-- 5 -->
<g id="node6" class="node">
<title>5</title>
<polygon fill="#399de5" stroke="black" points="104,-253.5 0,-253.5 0,-200.5 104,-200.5 104,-253.5"/>
<text text-anchor="middle" x="52" y="-238.3" font-family="Helvetica,sans-Serif" font-size="14.00">samples = 3</text>
<text text-anchor="middle" x="52" y="-223.3" font-family="Helvetica,sans-Serif" font-size="14.00">value = [0, 3]</text>
<text text-anchor="middle" x="52" y="-208.3" font-family="Helvetica,sans-Serif" font-size="14.00">class = benign</text>
</g>
<!-- 4&#45;&gt;5 -->
<g id="edge5" class="edge">
<title>4&#45;&gt;5</title>
<path fill="none" stroke="black" d="M140.47,-296.88C125.21,-285.01 108.06,-271.65 92.94,-259.88"/>
<polygon fill="black" stroke="black" points="94.82,-256.9 84.78,-253.52 90.52,-262.43 94.82,-256.9"/>
</g>
<!-- 6 -->
<g id="node7" class="node">
<title>6</title>
<polygon fill="#e58139" stroke="black" points="244,-253.5 122,-253.5 122,-200.5 244,-200.5 244,-253.5"/>
<text text-anchor="middle" x="183" y="-238.3" font-family="Helvetica,sans-Serif" font-size="14.00">samples = 1</text>
<text text-anchor="middle" x="183" y="-223.3" font-family="Helvetica,sans-Serif" font-size="14.00">value = [1, 0]</text>
<text text-anchor="middle" x="183" y="-208.3" font-family="Helvetica,sans-Serif" font-size="14.00">class = malignant</text>
</g>
<!-- 4&#45;&gt;6 -->
<g id="edge6" class="edge">
<title>4&#45;&gt;6</title>
<path fill="none" stroke="black" d="M183,-296.88C183,-286.33 183,-274.6 183,-263.85"/>
<polygon fill="black" stroke="black" points="186.5,-263.52 183,-253.52 179.5,-263.52 186.5,-263.52"/>
</g>
<!-- 8 -->
<g id="node9" class="node">
<title>8</title>
<polygon fill="#3a9de5" stroke="black" points="414,-261 262,-261 262,-193 414,-193 414,-261"/>
<text text-anchor="middle" x="338" y="-245.8" font-family="Helvetica,sans-Serif" font-size="14.00">worst texture &lt;= 33.35</text>
<text text-anchor="middle" x="338" y="-230.8" font-family="Helvetica,sans-Serif" font-size="14.00">samples = 243</text>
<text text-anchor="middle" x="338" y="-215.8" font-family="Helvetica,sans-Serif" font-size="14.00">value = [1, 242]</text>
<text text-anchor="middle" x="338" y="-200.8" font-family="Helvetica,sans-Serif" font-size="14.00">class = benign</text>
</g>
<!-- 7&#45;&gt;8 -->
<g id="edge8" class="edge">
<title>7&#45;&gt;8</title>
<path fill="none" stroke="black" d="M367.04,-296.88C363.51,-288.51 359.67,-279.4 355.97,-270.63"/>
<polygon fill="black" stroke="black" points="359.15,-269.15 352.04,-261.3 352.7,-271.87 359.15,-269.15"/>
</g>
<!-- 13 -->
<g id="node14" class="node">
<title>13</title>
<polygon fill="#7bbeee" stroke="black" points="601.5,-261 432.5,-261 432.5,-193 601.5,-193 601.5,-261"/>
<text text-anchor="middle" x="517" y="-245.8" font-family="Helvetica,sans-Serif" font-size="14.00">mean concavity &lt;= 0.029</text>
<text text-anchor="middle" x="517" y="-230.8" font-family="Helvetica,sans-Serif" font-size="14.00">samples = 4</text>
<text text-anchor="middle" x="517" y="-215.8" font-family="Helvetica,sans-Serif" font-size="14.00">value = [1, 3]</text>
<text text-anchor="middle" x="517" y="-200.8" font-family="Helvetica,sans-Serif" font-size="14.00">class = benign</text>
</g>
<!-- 7&#45;&gt;13 -->
<g id="edge13" class="edge">
<title>7&#45;&gt;13</title>
<path fill="none" stroke="black" d="M425.16,-296.88C437.63,-287.53 451.32,-277.26 464.24,-267.57"/>
<polygon fill="black" stroke="black" points="466.7,-270.1 472.6,-261.3 462.5,-264.5 466.7,-270.1"/>
</g>
<!-- 9 -->
<g id="node10" class="node">
<title>9</title>
<polygon fill="#399de5" stroke="black" points="255,-149.5 145,-149.5 145,-96.5 255,-96.5 255,-149.5"/>
<text text-anchor="middle" x="200" y="-134.3" font-family="Helvetica,sans-Serif" font-size="14.00">samples = 225</text>
<text text-anchor="middle" x="200" y="-119.3" font-family="Helvetica,sans-Serif" font-size="14.00">value = [0, 225]</text>
<text text-anchor="middle" x="200" y="-104.3" font-family="Helvetica,sans-Serif" font-size="14.00">class = benign</text>
</g>
<!-- 8&#45;&gt;9 -->
<g id="edge9" class="edge">
<title>8&#45;&gt;9</title>
<path fill="none" stroke="black" d="M293.2,-192.88C276.98,-180.9 258.72,-167.4 242.68,-155.55"/>
<polygon fill="black" stroke="black" points="244.65,-152.65 234.53,-149.52 240.49,-158.28 244.65,-152.65"/>
</g>
<!-- 10 -->
<g id="node11" class="node">
<title>10</title>
<polygon fill="#45a3e7" stroke="black" points="417,-157 273,-157 273,-89 417,-89 417,-157"/>
<text text-anchor="middle" x="345" y="-141.8" font-family="Helvetica,sans-Serif" font-size="14.00">worst texture &lt;= 33.8</text>
<text text-anchor="middle" x="345" y="-126.8" font-family="Helvetica,sans-Serif" font-size="14.00">samples = 18</text>
<text text-anchor="middle" x="345" y="-111.8" font-family="Helvetica,sans-Serif" font-size="14.00">value = [1, 17]</text>
<text text-anchor="middle" x="345" y="-96.8" font-family="Helvetica,sans-Serif" font-size="14.00">class = benign</text>
</g>
<!-- 8&#45;&gt;10 -->
<g id="edge10" class="edge">
<title>8&#45;&gt;10</title>
<path fill="none" stroke="black" d="M340.27,-192.88C340.83,-184.78 341.43,-175.98 342.02,-167.47"/>
<polygon fill="black" stroke="black" points="345.52,-167.52 342.71,-157.3 338.54,-167.04 345.52,-167.52"/>
</g>
<!-- 11 -->
<g id="node12" class="node">
<title>11</title>
<polygon fill="#e58139" stroke="black" points="340,-53 218,-53 218,0 340,0 340,-53"/>
<text text-anchor="middle" x="279" y="-37.8" font-family="Helvetica,sans-Serif" font-size="14.00">samples = 1</text>
<text text-anchor="middle" x="279" y="-22.8" font-family="Helvetica,sans-Serif" font-size="14.00">value = [1, 0]</text>
<text text-anchor="middle" x="279" y="-7.8" font-family="Helvetica,sans-Serif" font-size="14.00">class = malignant</text>
</g>
<!-- 10&#45;&gt;11 -->
<g id="edge11" class="edge">
<title>10&#45;&gt;11</title>
<path fill="none" stroke="black" d="M321.92,-88.95C315.72,-80.07 309.01,-70.46 302.77,-61.54"/>
<polygon fill="black" stroke="black" points="305.57,-59.43 296.97,-53.24 299.83,-63.44 305.57,-59.43"/>
</g>
<!-- 12 -->
<g id="node13" class="node">
<title>12</title>
<polygon fill="#399de5" stroke="black" points="462,-53 358,-53 358,0 462,0 462,-53"/>
<text text-anchor="middle" x="410" y="-37.8" font-family="Helvetica,sans-Serif" font-size="14.00">samples = 17</text>
<text text-anchor="middle" x="410" y="-22.8" font-family="Helvetica,sans-Serif" font-size="14.00">value = [0, 17]</text>
<text text-anchor="middle" x="410" y="-7.8" font-family="Helvetica,sans-Serif" font-size="14.00">class = benign</text>
</g>
<!-- 10&#45;&gt;12 -->
<g id="edge12" class="edge">
<title>10&#45;&gt;12</title>
<path fill="none" stroke="black" d="M367.73,-88.95C373.84,-80.07 380.45,-70.46 386.59,-61.54"/>
<polygon fill="black" stroke="black" points="389.51,-63.46 392.3,-53.24 383.75,-59.49 389.51,-63.46"/>
</g>
<!-- 14 -->
<g id="node15" class="node">
<title>14</title>
<polygon fill="#e58139" stroke="black" points="571,-149.5 449,-149.5 449,-96.5 571,-96.5 571,-149.5"/>
<text text-anchor="middle" x="510" y="-134.3" font-family="Helvetica,sans-Serif" font-size="14.00">samples = 1</text>
<text text-anchor="middle" x="510" y="-119.3" font-family="Helvetica,sans-Serif" font-size="14.00">value = [1, 0]</text>
<text text-anchor="middle" x="510" y="-104.3" font-family="Helvetica,sans-Serif" font-size="14.00">class = malignant</text>
</g>
<!-- 13&#45;&gt;14 -->
<g id="edge14" class="edge">
<title>13&#45;&gt;14</title>
<path fill="none" stroke="black" d="M514.73,-192.88C514,-182.22 513.18,-170.35 512.44,-159.52"/>
<polygon fill="black" stroke="black" points="515.93,-159.26 511.75,-149.52 508.94,-159.74 515.93,-159.26"/>
</g>
<!-- 15 -->
<g id="node16" class="node">
<title>15</title>
<polygon fill="#399de5" stroke="black" points="693,-149.5 589,-149.5 589,-96.5 693,-96.5 693,-149.5"/>
<text text-anchor="middle" x="641" y="-134.3" font-family="Helvetica,sans-Serif" font-size="14.00">samples = 3</text>
<text text-anchor="middle" x="641" y="-119.3" font-family="Helvetica,sans-Serif" font-size="14.00">value = [0, 3]</text>
<text text-anchor="middle" x="641" y="-104.3" font-family="Helvetica,sans-Serif" font-size="14.00">class = benign</text>
</g>
<!-- 13&#45;&gt;15 -->
<g id="edge15" class="edge">
<title>13&#45;&gt;15</title>
<path fill="none" stroke="black" d="M557.26,-192.88C571.7,-181.01 587.94,-167.65 602.25,-155.88"/>
<polygon fill="black" stroke="black" points="604.48,-158.58 609.98,-149.52 600.03,-153.17 604.48,-158.58"/>
</g>
<!-- 18 -->
<g id="node19" class="node">
<title>18</title>
<polygon fill="#7bbeee" stroke="black" points="912.5,-469 775.5,-469 775.5,-401 912.5,-401 912.5,-469"/>
<text text-anchor="middle" x="844" y="-453.8" font-family="Helvetica,sans-Serif" font-size="14.00">worst area &lt;= 817.1</text>
<text text-anchor="middle" x="844" y="-438.8" font-family="Helvetica,sans-Serif" font-size="14.00">samples = 12</text>
<text text-anchor="middle" x="844" y="-423.8" font-family="Helvetica,sans-Serif" font-size="14.00">value = [3, 9]</text>
<text text-anchor="middle" x="844" y="-408.8" font-family="Helvetica,sans-Serif" font-size="14.00">class = benign</text>
</g>
<!-- 17&#45;&gt;18 -->
<g id="edge18" class="edge">
<title>17&#45;&gt;18</title>
<path fill="none" stroke="black" d="M869.66,-504.88C866.58,-496.6 863.22,-487.6 859.99,-478.91"/>
<polygon fill="black" stroke="black" points="863.18,-477.45 856.41,-469.3 856.62,-479.89 863.18,-477.45"/>
</g>
<!-- 23 -->
<g id="node24" class="node">
<title>23</title>
<polygon fill="#e88f4f" stroke="black" points="1113,-469 943,-469 943,-401 1113,-401 1113,-469"/>
<text text-anchor="middle" x="1028" y="-453.8" font-family="Helvetica,sans-Serif" font-size="14.00">worst symmetry &lt;= 0.268</text>
<text text-anchor="middle" x="1028" y="-438.8" font-family="Helvetica,sans-Serif" font-size="14.00">samples = 20</text>
<text text-anchor="middle" x="1028" y="-423.8" font-family="Helvetica,sans-Serif" font-size="14.00">value = [18, 2]</text>
<text text-anchor="middle" x="1028" y="-408.8" font-family="Helvetica,sans-Serif" font-size="14.00">class = malignant</text>
</g>
<!-- 17&#45;&gt;23 -->
<g id="edge23" class="edge">
<title>17&#45;&gt;23</title>
<path fill="none" stroke="black" d="M929.4,-504.88C942.92,-495.44 957.77,-485.06 971.76,-475.29"/>
<polygon fill="black" stroke="black" points="974.14,-477.9 980.34,-469.3 970.13,-472.16 974.14,-477.9"/>
</g>
<!-- 19 -->
<g id="node20" class="node">
<title>19</title>
<polygon fill="#4fa8e8" stroke="black" points="765,-365 579,-365 579,-297 765,-297 765,-365"/>
<text text-anchor="middle" x="672" y="-349.8" font-family="Helvetica,sans-Serif" font-size="14.00">mean smoothness &lt;= 0.123</text>
<text text-anchor="middle" x="672" y="-334.8" font-family="Helvetica,sans-Serif" font-size="14.00">samples = 10</text>
<text text-anchor="middle" x="672" y="-319.8" font-family="Helvetica,sans-Serif" font-size="14.00">value = [1, 9]</text>
<text text-anchor="middle" x="672" y="-304.8" font-family="Helvetica,sans-Serif" font-size="14.00">class = benign</text>
</g>
<!-- 18&#45;&gt;19 -->
<g id="edge19" class="edge">
<title>18&#45;&gt;19</title>
<path fill="none" stroke="black" d="M788.16,-400.88C771.7,-391.12 753.56,-380.37 736.6,-370.31"/>
<polygon fill="black" stroke="black" points="738.24,-367.22 727.86,-365.12 734.67,-373.24 738.24,-367.22"/>
</g>
<!-- 22 -->
<g id="node23" class="node">
<title>22</title>
<polygon fill="#e58139" stroke="black" points="905,-357.5 783,-357.5 783,-304.5 905,-304.5 905,-357.5"/>
<text text-anchor="middle" x="844" y="-342.3" font-family="Helvetica,sans-Serif" font-size="14.00">samples = 2</text>
<text text-anchor="middle" x="844" y="-327.3" font-family="Helvetica,sans-Serif" font-size="14.00">value = [2, 0]</text>
<text text-anchor="middle" x="844" y="-312.3" font-family="Helvetica,sans-Serif" font-size="14.00">class = malignant</text>
</g>
<!-- 18&#45;&gt;22 -->
<g id="edge22" class="edge">
<title>18&#45;&gt;22</title>
<path fill="none" stroke="black" d="M844,-400.88C844,-390.33 844,-378.6 844,-367.85"/>
<polygon fill="black" stroke="black" points="847.5,-367.52 844,-357.52 840.5,-367.52 847.5,-367.52"/>
</g>
<!-- 20 -->
<g id="node21" class="node">
<title>20</title>
<polygon fill="#399de5" stroke="black" points="724,-253.5 620,-253.5 620,-200.5 724,-200.5 724,-253.5"/>
<text text-anchor="middle" x="672" y="-238.3" font-family="Helvetica,sans-Serif" font-size="14.00">samples = 9</text>
<text text-anchor="middle" x="672" y="-223.3" font-family="Helvetica,sans-Serif" font-size="14.00">value = [0, 9]</text>
<text text-anchor="middle" x="672" y="-208.3" font-family="Helvetica,sans-Serif" font-size="14.00">class = benign</text>
</g>
<!-- 19&#45;&gt;20 -->
<g id="edge20" class="edge">
<title>19&#45;&gt;20</title>
<path fill="none" stroke="black" d="M672,-296.88C672,-286.33 672,-274.6 672,-263.85"/>
<polygon fill="black" stroke="black" points="675.5,-263.52 672,-253.52 668.5,-263.52 675.5,-263.52"/>
</g>
<!-- 21 -->
<g id="node22" class="node">
<title>21</title>
<polygon fill="#e58139" stroke="black" points="864,-253.5 742,-253.5 742,-200.5 864,-200.5 864,-253.5"/>
<text text-anchor="middle" x="803" y="-238.3" font-family="Helvetica,sans-Serif" font-size="14.00">samples = 1</text>
<text text-anchor="middle" x="803" y="-223.3" font-family="Helvetica,sans-Serif" font-size="14.00">value = [1, 0]</text>
<text text-anchor="middle" x="803" y="-208.3" font-family="Helvetica,sans-Serif" font-size="14.00">class = malignant</text>
</g>
<!-- 19&#45;&gt;21 -->
<g id="edge21" class="edge">
<title>19&#45;&gt;21</title>
<path fill="none" stroke="black" d="M714.53,-296.88C729.79,-285.01 746.94,-271.65 762.06,-259.88"/>
<polygon fill="black" stroke="black" points="764.48,-262.43 770.22,-253.52 760.18,-256.9 764.48,-262.43"/>
</g>
<!-- 24 -->
<g id="node25" class="node">
<title>24</title>
<polygon fill="#9ccef2" stroke="black" points="1132.5,-365 923.5,-365 923.5,-297 1132.5,-297 1132.5,-365"/>
<text text-anchor="middle" x="1028" y="-349.8" font-family="Helvetica,sans-Serif" font-size="14.00">fractal dimension error &lt;= 0.002</text>
<text text-anchor="middle" x="1028" y="-334.8" font-family="Helvetica,sans-Serif" font-size="14.00">samples = 3</text>
<text text-anchor="middle" x="1028" y="-319.8" font-family="Helvetica,sans-Serif" font-size="14.00">value = [1, 2]</text>
<text text-anchor="middle" x="1028" y="-304.8" font-family="Helvetica,sans-Serif" font-size="14.00">class = benign</text>
</g>
<!-- 23&#45;&gt;24 -->
<g id="edge24" class="edge">
<title>23&#45;&gt;24</title>
<path fill="none" stroke="black" d="M1028,-400.88C1028,-392.78 1028,-383.98 1028,-375.47"/>
<polygon fill="black" stroke="black" points="1031.5,-375.3 1028,-365.3 1024.5,-375.3 1031.5,-375.3"/>
</g>
<!-- 27 -->
<g id="node28" class="node">
<title>27</title>
<polygon fill="#e58139" stroke="black" points="1273,-357.5 1151,-357.5 1151,-304.5 1273,-304.5 1273,-357.5"/>
<text text-anchor="middle" x="1212" y="-342.3" font-family="Helvetica,sans-Serif" font-size="14.00">samples = 17</text>
<text text-anchor="middle" x="1212" y="-327.3" font-family="Helvetica,sans-Serif" font-size="14.00">value = [17, 0]</text>
<text text-anchor="middle" x="1212" y="-312.3" font-family="Helvetica,sans-Serif" font-size="14.00">class = malignant</text>
</g>
<!-- 23&#45;&gt;27 -->
<g id="edge27" class="edge">
<title>23&#45;&gt;27</title>
<path fill="none" stroke="black" d="M1087.74,-400.88C1110.06,-388.51 1135.28,-374.53 1157.14,-362.41"/>
<polygon fill="black" stroke="black" points="1158.91,-365.43 1165.96,-357.52 1155.52,-359.31 1158.91,-365.43"/>
</g>
<!-- 25 -->
<g id="node26" class="node">
<title>25</title>
<polygon fill="#e58139" stroke="black" points="1047,-253.5 925,-253.5 925,-200.5 1047,-200.5 1047,-253.5"/>
<text text-anchor="middle" x="986" y="-238.3" font-family="Helvetica,sans-Serif" font-size="14.00">samples = 1</text>
<text text-anchor="middle" x="986" y="-223.3" font-family="Helvetica,sans-Serif" font-size="14.00">value = [1, 0]</text>
<text text-anchor="middle" x="986" y="-208.3" font-family="Helvetica,sans-Serif" font-size="14.00">class = malignant</text>
</g>
<!-- 24&#45;&gt;25 -->
<g id="edge25" class="edge">
<title>24&#45;&gt;25</title>
<path fill="none" stroke="black" d="M1014.36,-296.88C1009.88,-286 1004.88,-273.86 1000.35,-262.85"/>
<polygon fill="black" stroke="black" points="1003.55,-261.43 996.51,-253.52 997.08,-264.1 1003.55,-261.43"/>
</g>
<!-- 26 -->
<g id="node27" class="node">
<title>26</title>
<polygon fill="#399de5" stroke="black" points="1169,-253.5 1065,-253.5 1065,-200.5 1169,-200.5 1169,-253.5"/>
<text text-anchor="middle" x="1117" y="-238.3" font-family="Helvetica,sans-Serif" font-size="14.00">samples = 2</text>
<text text-anchor="middle" x="1117" y="-223.3" font-family="Helvetica,sans-Serif" font-size="14.00">value = [0, 2]</text>
<text text-anchor="middle" x="1117" y="-208.3" font-family="Helvetica,sans-Serif" font-size="14.00">class = benign</text>
</g>
<!-- 24&#45;&gt;26 -->
<g id="edge26" class="edge">
<title>24&#45;&gt;26</title>
<path fill="none" stroke="black" d="M1056.9,-296.88C1066.88,-285.45 1078.05,-272.63 1088.04,-261.19"/>
<polygon fill="black" stroke="black" points="1090.8,-263.36 1094.73,-253.52 1085.52,-258.75 1090.8,-263.36"/>
</g>
<!-- 29 -->
<g id="node30" class="node">
<title>29</title>
<polygon fill="#399de5" stroke="black" points="1165,-565.5 1061,-565.5 1061,-512.5 1165,-512.5 1165,-565.5"/>
<text text-anchor="middle" x="1113" y="-550.3" font-family="Helvetica,sans-Serif" font-size="14.00">samples = 5</text>
<text text-anchor="middle" x="1113" y="-535.3" font-family="Helvetica,sans-Serif" font-size="14.00">value = [0, 5]</text>
<text text-anchor="middle" x="1113" y="-520.3" font-family="Helvetica,sans-Serif" font-size="14.00">class = benign</text>
</g>
<!-- 28&#45;&gt;29 -->
<g id="edge29" class="edge">
<title>28&#45;&gt;29</title>
<path fill="none" stroke="black" d="M1113,-608.88C1113,-598.33 1113,-586.6 1113,-575.85"/>
<polygon fill="black" stroke="black" points="1116.5,-575.52 1113,-565.52 1109.5,-575.52 1116.5,-575.52"/>
</g>
<!-- 30 -->
<g id="node31" class="node">
<title>30</title>
<polygon fill="#e6843d" stroke="black" points="1426.5,-573 1259.5,-573 1259.5,-505 1426.5,-505 1426.5,-573"/>
<text text-anchor="middle" x="1343" y="-557.8" font-family="Helvetica,sans-Serif" font-size="14.00">worst concavity &lt;= 0.191</text>
<text text-anchor="middle" x="1343" y="-542.8" font-family="Helvetica,sans-Serif" font-size="14.00">samples = 137</text>
<text text-anchor="middle" x="1343" y="-527.8" font-family="Helvetica,sans-Serif" font-size="14.00">value = [134, 3]</text>
<text text-anchor="middle" x="1343" y="-512.8" font-family="Helvetica,sans-Serif" font-size="14.00">class = malignant</text>
</g>
<!-- 28&#45;&gt;30 -->
<g id="edge30" class="edge">
<title>28&#45;&gt;30</title>
<path fill="none" stroke="black" d="M1187.04,-609.17C1209.99,-598.99 1235.45,-587.69 1259.03,-577.24"/>
<polygon fill="black" stroke="black" points="1260.59,-580.38 1268.31,-573.12 1257.75,-573.98 1260.59,-580.38"/>
</g>
<!-- 31 -->
<g id="node32" class="node">
<title>31</title>
<polygon fill="#bddef6" stroke="black" points="1422.5,-469 1263.5,-469 1263.5,-401 1422.5,-401 1422.5,-469"/>
<text text-anchor="middle" x="1343" y="-453.8" font-family="Helvetica,sans-Serif" font-size="14.00">worst texture &lt;= 30.975</text>
<text text-anchor="middle" x="1343" y="-438.8" font-family="Helvetica,sans-Serif" font-size="14.00">samples = 5</text>
<text text-anchor="middle" x="1343" y="-423.8" font-family="Helvetica,sans-Serif" font-size="14.00">value = [2, 3]</text>
<text text-anchor="middle" x="1343" y="-408.8" font-family="Helvetica,sans-Serif" font-size="14.00">class = benign</text>
</g>
<!-- 30&#45;&gt;31 -->
<g id="edge31" class="edge">
<title>30&#45;&gt;31</title>
<path fill="none" stroke="black" d="M1343,-504.88C1343,-496.78 1343,-487.98 1343,-479.47"/>
<polygon fill="black" stroke="black" points="1346.5,-479.3 1343,-469.3 1339.5,-479.3 1346.5,-479.3"/>
</g>
<!-- 34 -->
<g id="node35" class="node">
<title>34</title>
<polygon fill="#e58139" stroke="black" points="1563,-461.5 1441,-461.5 1441,-408.5 1563,-408.5 1563,-461.5"/>
<text text-anchor="middle" x="1502" y="-446.3" font-family="Helvetica,sans-Serif" font-size="14.00">samples = 132</text>
<text text-anchor="middle" x="1502" y="-431.3" font-family="Helvetica,sans-Serif" font-size="14.00">value = [132, 0]</text>
<text text-anchor="middle" x="1502" y="-416.3" font-family="Helvetica,sans-Serif" font-size="14.00">class = malignant</text>
</g>
<!-- 30&#45;&gt;34 -->
<g id="edge34" class="edge">
<title>30&#45;&gt;34</title>
<path fill="none" stroke="black" d="M1394.62,-504.88C1413.57,-492.73 1434.93,-479.03 1453.58,-467.06"/>
<polygon fill="black" stroke="black" points="1455.69,-469.87 1462.22,-461.52 1451.91,-463.97 1455.69,-469.87"/>
</g>
<!-- 32 -->
<g id="node33" class="node">
<title>32</title>
<polygon fill="#399de5" stroke="black" points="1395,-357.5 1291,-357.5 1291,-304.5 1395,-304.5 1395,-357.5"/>
<text text-anchor="middle" x="1343" y="-342.3" font-family="Helvetica,sans-Serif" font-size="14.00">samples = 3</text>
<text text-anchor="middle" x="1343" y="-327.3" font-family="Helvetica,sans-Serif" font-size="14.00">value = [0, 3]</text>
<text text-anchor="middle" x="1343" y="-312.3" font-family="Helvetica,sans-Serif" font-size="14.00">class = benign</text>
</g>
<!-- 31&#45;&gt;32 -->
<g id="edge32" class="edge">
<title>31&#45;&gt;32</title>
<path fill="none" stroke="black" d="M1343,-400.88C1343,-390.33 1343,-378.6 1343,-367.85"/>
<polygon fill="black" stroke="black" points="1346.5,-367.52 1343,-357.52 1339.5,-367.52 1346.5,-367.52"/>
</g>
<!-- 33 -->
<g id="node34" class="node">
<title>33</title>
<polygon fill="#e58139" stroke="black" points="1535,-357.5 1413,-357.5 1413,-304.5 1535,-304.5 1535,-357.5"/>
<text text-anchor="middle" x="1474" y="-342.3" font-family="Helvetica,sans-Serif" font-size="14.00">samples = 2</text>
<text text-anchor="middle" x="1474" y="-327.3" font-family="Helvetica,sans-Serif" font-size="14.00">value = [2, 0]</text>
<text text-anchor="middle" x="1474" y="-312.3" font-family="Helvetica,sans-Serif" font-size="14.00">class = malignant</text>
</g>
<!-- 31&#45;&gt;33 -->
<g id="edge33" class="edge">
<title>31&#45;&gt;33</title>
<path fill="none" stroke="black" d="M1385.53,-400.88C1400.79,-389.01 1417.94,-375.65 1433.06,-363.88"/>
<polygon fill="black" stroke="black" points="1435.48,-366.43 1441.22,-357.52 1431.18,-360.9 1435.48,-366.43"/>
</g>
</g>
</svg>
